<svg width="128" height="128" viewBox="0 0 128 128" xmlns="http://www.w3.org/2000/svg">
    <rect x="8" y="8" width="112" height="112" rx="20" />
    <path d="M98.4164 43.9158C98.1101 42.6812 96.5652 42.2628 95.6656 43.1625L85.4992 53.3288L76.2188 51.7825L74.6725 42.5021L84.8389 32.3357C85.7439 31.4307 85.3078 29.8885 84.065 29.5795C77.5873 27.9744 70.4547 29.7039 65.392 34.7652C59.9725 40.1847 58.4809 48.0406 60.7368 54.8902L31.5624 84.0645C28.1459 87.4811 28.1459 93.0209 31.5624 96.4375C34.979 99.8541 40.5189 99.8541 43.9355 96.4375L73.0852 67.2878C79.9375 69.5723 87.7783 68.0643 93.2334 62.6093C98.3015 57.5411 100.028 50.3976 98.4164 43.9158V43.9158ZM37.7503 93.5309C35.9388 93.5309 34.4691 92.0612 34.4691 90.2496C34.4691 88.4367 35.9388 86.9684 37.7503 86.9684C39.5618 86.9684 41.0316 88.4367 41.0316 90.2496C41.0316 92.0612 39.5618 93.5309 37.7503 93.5309Z" fill="#353535"/>
</svg>
